<svg width="36" height="35" viewBox="0 0 36 35" fill="none" xmlns="http://www.w3.org/2000/svg">
<path d="M14.6661 19.984C16.6082 19.984 18.1825 21.5583 18.1825 23.5003C18.1825 25.4424 16.6082 27.0167 14.6661 27.0167C12.7241 27.0167 11.1498 25.4424 11.1498 23.5003C11.1498 21.5583 12.7241 19.984 14.6661 19.984Z" fill="white"/>
<path d="M20.5268 8.2627C18.5847 8.2627 17.0104 9.83703 17.0104 11.7791C17.0104 13.7211 18.5847 15.2955 20.5268 15.2955C22.4688 15.2955 24.0432 13.7211 24.0432 11.7791C24.0432 9.83703 22.4688 8.2627 20.5268 8.2627Z" fill="white"/>
<path d="M14.0801 10.8514C14.5656 10.8514 14.9592 11.2449 14.9592 11.7305C14.9592 12.216 14.5656 12.6096 14.0801 12.6096L5.87519 12.6096C5.38968 12.6096 4.99609 12.216 4.99609 11.7305C4.99609 11.2449 5.38968 10.8514 5.87519 10.8514H14.0801Z" fill="white"/>
<path d="M21.1128 22.5726C20.6273 22.5726 20.2337 22.9662 20.2337 23.4517C20.2337 23.9372 20.6273 24.3308 21.1128 24.3308H29.3177C29.8032 24.3308 30.1968 23.9372 30.1968 23.4517C30.1968 22.9662 29.8032 22.5726 29.3177 22.5726H21.1128Z" fill="white"/>
<path d="M4.99609 23.4517C4.99609 22.9662 5.38968 22.5726 5.87519 22.5726H8.21944C8.70495 22.5726 9.09854 22.9662 9.09854 23.4517C9.09854 23.9372 8.70495 24.3308 8.21944 24.3308H5.87519C5.38968 24.3308 4.99609 23.9372 4.99609 23.4517Z" fill="white"/>
<path d="M29.3177 10.8514C29.8032 10.8514 30.1968 11.2449 30.1968 11.7305C30.1968 12.216 29.8032 12.6096 29.3177 12.6096H26.9735C26.488 12.6096 26.0944 12.216 26.0944 11.7305C26.0944 11.2449 26.488 10.8514 26.9735 10.8514H29.3177Z" fill="white"/>
</svg>
